<svg viewBox="0 0 16 16" fill="none" xmlns="http://www.w3.org/2000/svg" id="Twitter--Streamline-Unicons" height="16" width="16"><desc>Twitter Streamline Icon: https://streamlinehq.com</desc><path d="M15.84 3.1470000000000002c-0.5893333333333333 0.25566666666666665 -1.2125333333333332 0.42466666666666664 -1.8502666666666665 0.5018 0.6728666666666667 -0.4019333333333333 1.1770666666666667 -1.0342666666666664 1.4190666666666667 -1.7797333333333332 -0.6322 0.37639999999999996 -1.3243333333333331 0.6416 -2.0462666666666665 0.7839999999999999 -0.4825333333333333 -0.5232666666666667 -1.125 -0.8715333333333333 -1.8268666666666666 -0.9902666666666666 -0.7017333333333333 -0.11873333333333333 -1.4231999999999998 -0.0012 -2.050933333333333 0.33419999999999994 -0.6277999999999999 0.33546666666666664 -1.1265333333333332 0.8697333333333332 -1.4179333333333333 1.5191333333333334 -0.2914 0.6494 -0.359 1.3771333333333333 -0.19226666666666664 2.0691333333333333 -1.2784 -0.06466666666666666 -2.5288 -0.39753333333333335 -3.6701333333333332 -0.977 -1.1413333333333333 -0.5793999999999999 -2.1479999999999997 -1.3924666666666665 -2.9546666666666668 -2.3864 -0.28286666666666666 0.49406666666666665 -0.4315333333333333 1.0535999999999999 -0.4312 1.6229333333333333 -0.001 0.5286666666666666 0.1288 1.0494666666666665 0.3777333333333333 1.5158666666666667 0.24893333333333334 0.46646666666666664 0.6093333333333333 0.8641333333333333 1.0492 1.1576 -0.5112 -0.014 -1.0114666666666667 -0.15113333333333334 -1.4582666666666664 -0.39986666666666665v0.0392c0.0038666666666666663 0.7407999999999999 0.26339999999999997 1.4575333333333333 0.7348666666666667 2.0289333333333333 0.47139999999999993 0.5714666666666666 1.1258 0.9625333333333332 1.8523333333333334 1.1070666666666666 -0.2796666666666666 0.08506666666666665 -0.5700666666666666 0.13 -0.8624 0.13326666666666664 -0.2023333333333333 -0.002333333333333333 -0.40419999999999995 -0.020733333333333333 -0.6036666666666666 -0.05486666666666666 0.20686666666666667 0.6372666666666666 0.6072666666666666 1.1941333333333333 1.1454666666666666 1.5932 0.5382 0.399 1.1873999999999998 0.6204 1.8572666666666664 0.6333333333333333 -1.1312 0.8899999999999999 -2.527733333333333 1.3758 -3.9670666666666663 1.3798666666666666 -0.26206666666666667 0.0008666666666666666 -0.5239333333333334 -0.014866666666666667 -0.7839999999999999 -0.04706666666666666 1.4695333333333331 0.9488 3.1821333333333333 1.4525333333333332 4.931333333333333 1.4504000000000001 1.2071333333333332 0.0126 2.4046666666666665 -0.2156 3.5225999999999997 -0.6710666666666666 1.1179999999999999 -0.4554666666666667 2.134 -1.1291333333333333 2.9887333333333332 -1.9815999999999998 0.8546666666666667 -0.8524666666666666 1.5309333333333335 -1.8667333333333334 1.9892666666666667 -2.983533333333333 0.4583333333333333 -1.1168666666666667 0.6894666666666667 -2.3137999999999996 0.6800666666666666 -3.520933333333333v-0.4155333333333333c0.6152 -0.4587333333333333 1.1458 -1.0211999999999999 1.5679999999999998 -1.6620666666666666Z" fill="#ffffff" stroke-width="0.6667"></path></svg>